<mxfile host="app.diagrams.net" modified="2020-10-04T12:01:04.918Z" agent="5.0 (Windows)" etag="xmgW1Miqa75cInDJP64-" version="13.7.7" type="github">
  <diagram name="Page-1" id="97916047-d0de-89f5-080d-49f4d83e522f">
    <mxGraphModel dx="786" dy="693" grid="1" gridSize="10" guides="1" tooltips="1" connect="1" arrows="1" fold="1" page="1" pageScale="1.5" pageWidth="1169" pageHeight="827" background="#ffffff" math="0" shadow="0">
      <root>
        <mxCell id="0" />
        <mxCell id="1" parent="0" />
        <mxCell id="2" value="Types of Testing" style="rounded=1;fillColor=#10739E;strokeColor=none;shadow=1;gradientColor=none;fontStyle=1;fontColor=#FFFFFF;fontSize=14;" parent="1" vertex="1">
          <mxGeometry x="713" y="205.5" width="200" height="60" as="geometry" />
        </mxCell>
        <mxCell id="3" value="Functional Testing" style="rounded=1;fillColor=#10739E;strokeColor=none;shadow=1;gradientColor=none;fontStyle=1;fontColor=#FFFFFF;fontSize=14;align=center;" parent="1" vertex="1">
          <mxGeometry x="560" y="310" width="199" height="60" as="geometry" />
        </mxCell>
        <mxCell id="5" value="  • Unit Testing&#xa;  • Integration Testing&#xa;  • System Testing&#xa;  • Sanity Testing&#xa;  • Smoke Testing&#xa;  • Interface Testing&#xa;  • Regression Testing&#xa;  • Beta/Acceptance Testing" style="rounded=1;fillColor=#10739E;strokeColor=none;shadow=1;gradientColor=none;fontStyle=1;fontColor=#FFFFFF;fontSize=14;align=left;" parent="1" vertex="1">
          <mxGeometry x="560" y="440" width="200" height="190" as="geometry" />
        </mxCell>
        <mxCell id="7" value="Non Functional Testing" style="rounded=1;fillColor=#10739E;strokeColor=none;shadow=1;gradientColor=none;fontStyle=1;fontColor=#FFFFFF;fontSize=14;" parent="1" vertex="1">
          <mxGeometry x="870" y="310" width="210" height="60" as="geometry" />
        </mxCell>
        <mxCell id="29" value="" style="edgeStyle=elbowEdgeStyle;elbow=vertical;strokeWidth=4;endArrow=block;endFill=1;fontStyle=1;strokeColor=#23445D;exitX=0.32;exitY=1.075;exitDx=0;exitDy=0;exitPerimeter=0;" parent="1" source="2" target="3" edge="1">
          <mxGeometry x="22" y="165.5" width="100" height="100" as="geometry">
            <mxPoint x="22" y="265.5" as="sourcePoint" />
            <mxPoint x="122" y="165.5" as="targetPoint" />
          </mxGeometry>
        </mxCell>
        <mxCell id="foKOD0KsFAmLuRVd5W_j-80" value="" style="edgeStyle=elbowEdgeStyle;elbow=vertical;strokeWidth=4;endArrow=block;endFill=1;fontStyle=1;strokeColor=#23445D;rounded=1;exitX=0.75;exitY=1;exitDx=0;exitDy=0;" edge="1" parent="1" source="2">
          <mxGeometry x="91" y="165.5" width="100" height="100" as="geometry">
            <mxPoint x="799" y="266.64" as="sourcePoint" />
            <mxPoint x="980" y="312" as="targetPoint" />
            <Array as="points">
              <mxPoint x="779" y="288" />
            </Array>
          </mxGeometry>
        </mxCell>
        <mxCell id="foKOD0KsFAmLuRVd5W_j-83" value="" style="edgeStyle=elbowEdgeStyle;elbow=vertical;strokeWidth=4;endArrow=block;endFill=1;fontStyle=1;strokeColor=#23445D;exitX=0.412;exitY=1.031;exitDx=0;exitDy=0;exitPerimeter=0;" edge="1" parent="1">
          <mxGeometry x="-79.9" y="268.14" width="100" height="100" as="geometry">
            <mxPoint x="659.4999999999999" y="370" as="sourcePoint" />
            <mxPoint x="659.6" y="440" as="targetPoint" />
          </mxGeometry>
        </mxCell>
        <mxCell id="foKOD0KsFAmLuRVd5W_j-84" value="" style="edgeStyle=elbowEdgeStyle;elbow=vertical;strokeWidth=4;endArrow=block;endFill=1;fontStyle=1;strokeColor=#23445D;exitX=0.412;exitY=1.031;exitDx=0;exitDy=0;exitPerimeter=0;" edge="1" parent="1">
          <mxGeometry x="240.6" y="268.14" width="100" height="100" as="geometry">
            <mxPoint x="979.9999999999999" y="370" as="sourcePoint" />
            <mxPoint x="980.1" y="440" as="targetPoint" />
          </mxGeometry>
        </mxCell>
        <mxCell id="foKOD0KsFAmLuRVd5W_j-89" value="  • Unit Testing Performance Testing&#xa;  • Integration Testing Load Testing&#xa;  • System Testing Stress Testing&#xa;  • Sanity Testing Volume Testing&#xa;  • Smoke Testing Security Testing&#xa;  • Interface Testing Compatibility Testing&#xa;  • Regression Testing Install Testing&#xa;  • Beta/Acceptance Testing Recovery Testing&#xa;  • Reliability Testing&#xa;  • Usability Testing&#xa;  • Compliance Testing&#xa;  • Localization Testing" style="rounded=1;fillColor=#10739E;strokeColor=none;shadow=1;gradientColor=none;fontStyle=1;fontColor=#FFFFFF;fontSize=14;align=left;" vertex="1" parent="1">
          <mxGeometry x="810" y="440" width="330" height="240" as="geometry" />
        </mxCell>
      </root>
    </mxGraphModel>
  </diagram>
</mxfile>
